<svg width="26" height="26" viewBox="0 0 26 26" fill="none" xmlns="http://www.w3.org/2000/svg">
<g id="report 1" clip-path="url(#clip0_124_14)">
<path id="Vector" d="M4 12.2C4.60508 12.2 5.15273 11.9572 5.55742 11.5673L7.77754 12.6773C7.76641 12.7677 7.75 12.8566 7.75 12.95C7.75 14.1906 8.75938 15.2 10 15.2C11.2406 15.2 12.25 14.1906 12.25 12.95C12.25 12.6037 12.1648 12.2794 12.0244 11.9861L15.0361 8.97437C15.3295 9.11479 15.6537 9.19995 16 9.19995C17.2406 9.19995 18.25 8.19058 18.25 6.94995C18.25 6.71636 18.2041 6.49546 18.1377 6.28355L20.7545 4.32144C21.1115 4.55991 21.5395 4.69995 22 4.69995C23.2406 4.69995 24.25 3.69058 24.25 2.44995C24.25 1.20933 23.2406 0.199951 22 0.199951C20.7594 0.199951 19.75 1.20933 19.75 2.44995C19.75 2.68354 19.7959 2.90444 19.8623 3.11636L17.2455 5.07847C16.8885 4.83999 16.4605 4.69995 16 4.69995C14.7594 4.69995 13.75 5.70933 13.75 6.94995C13.75 7.29624 13.8352 7.62046 13.9756 7.91382L10.9639 10.9255C10.6705 10.7851 10.3463 10.7 10 10.7C9.39492 10.7 8.84727 10.9427 8.44258 11.3326L6.22246 10.2226C6.23359 10.1322 6.25 10.0433 6.25 9.94995C6.25 8.70933 5.24063 7.69995 4 7.69995C2.75938 7.69995 1.75 8.70933 1.75 9.94995C1.75 11.1906 2.75938 12.2 4 12.2Z" fill="#F49C4E"/>
<path id="Vector_2" d="M25.05 24.3H24.25V8.44995C24.25 8.0355 23.9145 7.69995 23.5 7.69995H20.5C20.0856 7.69995 19.75 8.0355 19.75 8.44995V24.3H18.25V12.95C18.25 12.5355 17.9145 12.2 17.5 12.2H14.5C14.0856 12.2 13.75 12.5355 13.75 12.95V24.3H12.25V18.95C12.25 18.5355 11.9145 18.2 11.5 18.2H8.50001C8.08556 18.2 7.75001 18.5355 7.75001 18.95V24.3H6.25001V15.95C6.25001 15.5355 5.91447 15.2 5.50001 15.2H2.50001C2.08556 15.2 1.75001 15.5355 1.75001 15.95V24.3H0.950012C0.535559 24.3 0.200012 24.6355 0.200012 25.05C0.200012 25.4644 0.535559 25.8 0.950012 25.8H25.05C25.4645 25.8 25.8 25.4644 25.8 25.05C25.8 24.6355 25.4645 24.3 25.05 24.3Z" fill="#F49C4E"/>
</g>
<defs>
<clipPath id="clip0_124_14">
<rect width="25.6" height="25.6" fill="white" transform="translate(0.200012 0.199951)"/>
</clipPath>
</defs>
</svg>
